<svg width="30" height="30" viewBox="0 0 30 30" fill="none" xmlns="http://www.w3.org/2000/svg">
<path d="M29.2223 9.19079L25.1413 8.66471C25.0726 8.65738 25.0033 8.67117 24.9426 8.70424C24.8819 8.73732 24.8328 8.7881 24.8017 8.84983L23.7166 10.9925L19.1741 20.0774C19.1258 20.1733 19.0449 20.249 18.9459 20.2907C18.8469 20.3324 18.7363 20.3375 18.6339 20.305L6.30414 16.3694C6.27013 16.3586 6.23403 16.3559 6.19881 16.3618C6.16359 16.3676 6.13025 16.3817 6.10155 16.4029C6.07284 16.4241 6.04958 16.4518 6.03368 16.4838C6.01778 16.5158 6.0097 16.551 6.01009 16.5867L6.01574 17.0988C6.01643 17.1699 6.03957 17.2391 6.08185 17.2964C6.12414 17.3536 6.18341 17.3961 6.25124 17.4177L19.2964 21.5815C19.4419 21.628 19.5724 21.712 19.6749 21.8251C19.7774 21.9383 19.8482 22.0765 19.88 22.2258L19.8844 22.2462C19.9979 22.8694 19.3836 23.3811 18.7783 23.1974L4.47382 18.6257C4.40044 18.6023 4.33723 18.5546 4.29466 18.4905C4.25208 18.4263 4.23268 18.3496 4.23968 18.2729L5.35918 6.04789C5.3648 5.98486 5.38363 5.92372 5.41442 5.86843C5.44521 5.81315 5.48728 5.76496 5.53791 5.72699C5.58854 5.68902 5.64658 5.66212 5.70828 5.64803C5.76997 5.63395 5.83394 5.633 5.89603 5.64525L23.0326 8.99757L24.1363 6.80404C24.1682 6.74205 24.2183 6.69133 24.2799 6.65872C24.3415 6.62612 24.4116 6.6132 24.4808 6.62171L29.4783 7.26167C29.5226 7.26724 29.5654 7.28155 29.6041 7.30377C29.6429 7.32598 29.6769 7.35567 29.7041 7.3911C29.7313 7.42654 29.7512 7.46702 29.7627 7.5102C29.7742 7.55338 29.7769 7.59841 29.7709 7.64268L29.6005 8.89965C29.5887 8.98828 29.5423 9.06864 29.4714 9.12318C29.4006 9.17773 29.311 9.20203 29.2223 9.19079Z" fill="#1D97FD"/>
<path d="M6.0498 14.2772L7.44616 14.7228L8.7856 7.93072L6.64192 7.60156L6.0498 14.2772Z" fill="#DEE9FF"/>
<path d="M17.0059 17.7728L18.4022 18.2185L22.0134 10.6128L20.4753 10.2402L17.0059 17.7728Z" fill="#DEE9FF"/>
<path d="M11.6357 16.0592L12.9247 16.4706L15.6857 9.30375L13.5763 8.86719L11.6357 16.0592Z" fill="#DEE9FF"/>
<path d="M10.0017 8.19922L12.1111 8.63578L10.2391 15.613L8.84277 15.1673L10.0017 8.19922Z" fill="#DEE9FF"/>
<path d="M19.1528 9.93658L17.0434 9.5L14.4287 16.9503L15.7177 17.3617L19.1528 9.93658Z" fill="#DEE9FF"/>
<path d="M6.31946 23.0393C7.22238 23.0393 7.95435 22.3073 7.95435 21.4044C7.95435 20.5015 7.22238 19.7695 6.31946 19.7695C5.41654 19.7695 4.68457 20.5015 4.68457 21.4044C4.68457 22.3073 5.41654 23.0393 6.31946 23.0393Z" fill="#1D97FD"/>
<path d="M16.5236 26.2971C17.4265 26.2971 18.1585 25.5652 18.1585 24.6622C18.1585 23.7593 17.4265 23.0273 16.5236 23.0273C15.6206 23.0273 14.8887 23.7593 14.8887 24.6622C14.8887 25.5652 15.6206 26.2971 16.5236 26.2971Z" fill="#1D97FD"/>
<path d="M29.9567 7.19306L25.6497 6.65385C25.6258 6.65086 25.604 6.66779 25.601 6.69167L25.34 8.77691C25.337 8.80078 25.3539 8.82256 25.3778 8.82555L29.6848 9.36476C29.7087 9.36775 29.7304 9.35082 29.7334 9.32694L29.9945 7.24171C29.9975 7.21783 29.9806 7.19605 29.9567 7.19306Z" fill="#027DE3"/>
</svg>
