<svg width="247" height="233" viewBox="0 0 247 233" fill="none" xmlns="http://www.w3.org/2000/svg">
<path d="M232.92 93.3302C232.92 93.3302 192.866 113.422 218.972 176.453C242.157 232.43 159.055 240.037 126.745 228.242C84.8916 212.964 71.092 160.141 34.198 169.498C-2.69613 178.855 -19.5983 103.531 34.8256 86.6591C102.527 65.6712 68.1028 40.2819 78.9318 17.9527C86.7041 1.92679 148.041 -14.0305 171.028 20.7955C190.37 50.1016 204.744 43.4243 216.989 42.1641C234.648 40.346 265 71.6597 232.92 93.3302Z" fill="#1D97FD" fill-opacity="0.1"/>
<path d="M218.487 97.6006L196.008 94.7027C195.629 94.6623 195.248 94.7383 194.913 94.9205C194.579 95.1027 194.308 95.3824 194.137 95.7224L188.16 107.525L163.138 157.568C162.872 158.096 162.426 158.513 161.881 158.743C161.336 158.973 160.727 159.001 160.163 158.822L92.2457 137.143C92.0584 137.083 91.8595 137.069 91.6655 137.101C91.4715 137.133 91.2879 137.211 91.1298 137.327C90.9716 137.444 90.8435 137.597 90.7559 137.773C90.6683 137.949 90.6238 138.144 90.626 138.34L90.6571 141.161C90.6609 141.553 90.7884 141.934 91.0213 142.249C91.2542 142.564 91.5807 142.798 91.9543 142.918L163.812 165.853C164.613 166.109 165.332 166.572 165.897 167.195C166.461 167.818 166.851 168.58 167.027 169.402L167.051 169.514C167.676 172.948 164.292 175.766 160.958 174.754L82.1636 149.571C81.7594 149.443 81.4113 149.18 81.1767 148.827C80.9422 148.473 80.8354 148.051 80.8739 147.628L87.0405 80.2883C87.0715 79.9411 87.1752 79.6043 87.3448 79.2998C87.5144 78.9953 87.7462 78.7298 88.025 78.5207C88.3039 78.3115 88.6236 78.1633 88.9635 78.0858C89.3033 78.0082 89.6557 78.003 89.9977 78.0704L184.392 96.5362L190.472 84.4535C190.647 84.112 190.923 83.8326 191.263 83.653C191.602 83.4734 191.988 83.4023 192.37 83.4491L219.897 86.9743C220.141 87.005 220.377 87.0838 220.591 87.2061C220.804 87.3285 220.991 87.492 221.141 87.6872C221.291 87.8824 221.401 88.1054 221.464 88.3433C221.527 88.5811 221.543 88.8291 221.509 89.073L220.571 95.9969C220.505 96.4851 220.25 96.9277 219.86 97.2282C219.469 97.5286 218.976 97.6625 218.487 97.6006Z" fill="#1D97FD"/>
<path d="M90.8467 125.613L98.5383 128.068L105.916 90.6549L94.1083 88.8418L90.8467 125.613Z" fill="#DEE9FF"/>
<path d="M151.196 144.877L158.888 147.332L178.779 105.437L170.307 103.385L151.196 144.877Z" fill="#DEE9FF"/>
<path d="M121.614 135.433L128.714 137.699L143.923 98.2212L132.303 95.8164L121.614 135.433Z" fill="#DEE9FF"/>
<path d="M112.613 92.1406L124.232 94.5454L113.921 132.979L106.229 130.523L112.613 92.1406Z" fill="#DEE9FF"/>
<path d="M163.019 101.71L151.4 99.3047L136.997 140.343L144.097 142.61L163.019 101.71Z" fill="#DEE9FF"/>
<path d="M92.3317 173.884C97.3054 173.884 101.337 169.852 101.337 164.879C101.337 159.905 97.3054 155.873 92.3317 155.873C87.3581 155.873 83.3262 159.905 83.3262 164.879C83.3262 169.852 87.3581 173.884 92.3317 173.884Z" fill="#1D97FD"/>
<path d="M148.54 191.824C153.513 191.824 157.545 187.792 157.545 182.818C157.545 177.844 153.513 173.812 148.54 173.812C143.566 173.812 139.534 177.844 139.534 182.818C139.534 187.792 143.566 191.824 148.54 191.824Z" fill="#1D97FD"/>
<path d="M222.532 86.6016L198.807 83.6314C198.676 83.6149 198.556 83.7082 198.54 83.8397L197.102 95.3259C197.085 95.4575 197.178 95.5774 197.31 95.5939L221.034 98.5641C221.166 98.5806 221.286 98.4873 221.302 98.3558L222.74 86.8695C222.757 86.738 222.664 86.618 222.532 86.6016Z" fill="#027DE3"/>
</svg>
