<svg width="31" height="32" viewBox="0 0 31 32" fill="none" xmlns="http://www.w3.org/2000/svg">
<path d="M0 12.1481C0 8.10232 0 6.07944 0.787358 4.53416C1.47994 3.1749 2.58505 2.06978 3.94432 1.3772C5.48959 0.589844 7.51248 0.589844 11.5582 0.589844H19.2637C23.3095 0.589844 25.3324 0.589844 26.8777 1.3772C28.2369 2.06978 29.342 3.1749 30.0346 4.53416C30.822 6.07944 30.822 8.10232 30.822 12.1481V19.8536C30.822 23.8993 30.822 25.9222 30.0346 27.4675C29.342 28.8268 28.2369 29.9319 26.8777 30.6245C25.3324 31.4118 23.3095 31.4118 19.2637 31.4118H11.5582C7.51248 31.4118 5.48959 31.4118 3.94432 30.6245C2.58505 29.9319 1.47994 28.8268 0.787358 27.4675C0 25.9222 0 23.8993 0 19.8536V12.1481Z" fill="#0D0D0D"/>
<path d="M20.829 19.5528V13.4716C20.829 12.4601 20.829 11.9544 20.6322 11.5681C20.459 11.2283 20.1827 10.952 19.8429 10.7789C19.4566 10.582 18.9509 10.582 17.9395 10.582H12.8827C11.8713 10.582 11.3656 10.582 10.9792 10.7789C10.6394 10.952 10.3631 11.2283 10.19 11.5681C9.99316 11.9544 9.99316 12.4601 9.99316 13.4716V16.7986C9.99316 17.81 9.99316 18.3157 10.19 18.702C10.3631 19.0418 10.6394 19.3181 10.9792 19.4913C11.3656 19.6881 11.8713 19.6881 12.8827 19.6881H17.06C17.2873 19.6881 17.401 19.6881 17.5105 19.6996C17.8872 19.7391 18.2463 19.8794 18.55 20.1057C18.6383 20.1715 18.7218 20.2486 18.889 20.4027C19.2447 20.7308 19.4226 20.8948 19.5576 20.9552C20.044 21.1725 20.6119 20.9237 20.7818 20.4188C20.829 20.2787 20.829 20.0367 20.829 19.5528Z" fill="white"/>
</svg>
