<svg width="78" height="78" viewBox="0 0 78 78" fill="none" xmlns="http://www.w3.org/2000/svg">
<circle cx="39" cy="39" r="39" fill="#1D97FD" fill-opacity="0.1"/>
<circle cx="38.1137" cy="38.1127" r="25.7045" fill="white"/>
<g clip-path="url(#clip0_5319_6467)">
<path d="M46.9688 24H31.0312C27.148 24 24 27.148 24 31.0312V46.9688C24 50.852 27.148 54 31.0312 54H46.9688C50.852 54 54 50.852 54 46.9688V31.0312C54 27.148 50.852 24 46.9688 24Z" fill="url(#paint0_radial_5319_6467)"/>
<path d="M46.9688 24H31.0312C27.148 24 24 27.148 24 31.0312V46.9688C24 50.852 27.148 54 31.0312 54H46.9688C50.852 54 54 50.852 54 46.9688V31.0312C54 27.148 50.852 24 46.9688 24Z" fill="url(#paint1_radial_5319_6467)"/>
<path d="M39.0011 27.2812C35.8185 27.2812 35.419 27.2952 34.1691 27.352C32.9215 27.4092 32.0699 27.6067 31.3248 27.8965C30.5539 28.1958 29.9002 28.5962 29.2488 29.2478C28.5969 29.8992 28.1965 30.553 27.8963 31.3235C27.6056 32.0688 27.4079 32.9208 27.3518 34.1678C27.2959 35.4178 27.2812 35.8174 27.2812 39.0001C27.2812 42.1828 27.2953 42.581 27.352 43.8309C27.4095 45.0785 27.6069 45.9301 27.8965 46.6752C28.196 47.4461 28.5964 48.0998 29.248 48.7512C29.8992 49.4031 30.553 49.8045 31.3233 50.1038C32.0689 50.3936 32.9207 50.591 34.168 50.6482C35.418 50.705 35.8172 50.719 38.9996 50.719C42.1826 50.719 42.5808 50.705 43.8307 50.6482C45.0783 50.591 45.9308 50.3936 46.6765 50.1038C47.447 49.8045 48.0998 49.4031 48.7509 48.7512C49.4029 48.0998 49.8032 47.4461 50.1035 46.6755C50.3916 45.9301 50.5894 45.0783 50.648 43.8312C50.7041 42.5812 50.7188 42.1828 50.7188 39.0001C50.7188 35.8174 50.7041 35.418 50.648 34.168C50.5894 32.9204 50.3916 32.0689 50.1035 31.3239C49.8032 30.553 49.4029 29.8992 48.7509 29.2478C48.0991 28.596 47.4472 28.1955 46.6758 27.8966C45.9287 27.6067 45.0766 27.4091 43.8291 27.352C42.579 27.2952 42.1811 27.2812 38.9974 27.2812H39.0011ZM37.9498 29.3931C38.2618 29.3926 38.61 29.3931 39.0011 29.3931C42.1301 29.3931 42.5009 29.4043 43.7365 29.4605C44.8791 29.5127 45.4992 29.7036 45.9123 29.8641C46.4592 30.0764 46.8491 30.3304 47.259 30.7406C47.6692 31.1508 47.923 31.5414 48.1359 32.0883C48.2964 32.5008 48.4875 33.1209 48.5395 34.2635C48.5957 35.4989 48.6079 35.8699 48.6079 38.9974C48.6079 42.1249 48.5957 42.4961 48.5395 43.7313C48.4873 44.8739 48.2964 45.4941 48.1359 45.9067C47.9236 46.4536 47.6692 46.843 47.259 47.2529C46.8489 47.6631 46.4595 47.9169 45.9123 48.1294C45.4997 48.2905 44.8791 48.4809 43.7365 48.5332C42.5011 48.5893 42.1301 48.6015 39.0011 48.6015C35.8719 48.6015 35.501 48.5893 34.2657 48.5332C33.1232 48.4805 32.503 48.2896 32.0896 48.1291C31.5428 47.9167 31.1521 47.6629 30.7419 47.2527C30.3318 46.8425 30.0779 46.4529 29.865 45.9057C29.7046 45.4931 29.5134 44.873 29.4614 43.7304C29.4053 42.495 29.394 42.124 29.394 38.9945C29.394 35.8651 29.4053 35.496 29.4614 34.2606C29.5137 33.118 29.7046 32.4979 29.865 32.0848C30.0775 31.5379 30.3318 31.1473 30.742 30.7371C31.1522 30.327 31.5428 30.073 32.0897 29.8602C32.5028 29.6991 33.1232 29.5086 34.2657 29.4561C35.3468 29.4073 35.7657 29.3926 37.9498 29.3902V29.3931ZM45.2565 31.3389C44.4802 31.3389 43.8503 31.9682 43.8503 32.7446C43.8503 33.521 44.4802 34.1509 45.2565 34.1509C46.0329 34.1509 46.6628 33.521 46.6628 32.7446C46.6628 31.9683 46.0329 31.3384 45.2565 31.3384V31.3389ZM39.0011 32.982C35.6776 32.982 32.983 35.6766 32.983 39.0001C32.983 42.3237 35.6776 45.017 39.0011 45.017C42.3246 45.017 45.0183 42.3237 45.0183 39.0001C45.0183 35.6767 42.3244 32.982 39.0008 32.982H39.0011ZM39.0011 35.0938C41.1584 35.0938 42.9074 36.8426 42.9074 39.0001C42.9074 41.1574 41.1584 42.9064 39.0011 42.9064C36.8436 42.9064 35.0948 41.1574 35.0948 39.0001C35.0948 36.8426 36.8436 35.0938 39.0011 35.0938Z" fill="white"/>
<path d="M46.9688 24H31.0312C27.148 24 24 27.148 24 31.0313V46.9688C24 50.852 27.148 54 31.0312 54H46.9688C50.852 54 54 50.852 54 46.9688V31.0313C54 27.148 50.852 24 46.9688 24Z" fill="white"/>
<path d="M46.9688 24H31.0312C27.148 24 24 27.148 24 31.0313V46.9688C24 50.852 27.148 54 31.0312 54H46.9688C50.852 54 54 50.852 54 46.9688V31.0313C54 27.148 50.852 24 46.9688 24Z" fill="#1D9BF0"/>
<path d="M47.3873 34.7122C47.4002 34.8982 47.4002 35.0842 47.4002 35.2719C47.4002 40.9903 43.047 47.5854 35.0868 47.5854V47.5819C32.7352 47.5853 30.4323 46.9118 28.4531 45.6418C28.7951 45.683 29.1387 45.7035 29.4832 45.7043C31.4322 45.7058 33.3252 45.0521 34.8579 43.8482C33.9548 43.8311 33.0797 43.5322 32.3548 42.9934C31.6299 42.4546 31.0915 41.7027 30.8149 40.8429C31.4633 40.9679 32.1317 40.9424 32.7687 40.7684C30.7498 40.3604 29.2972 38.5866 29.2972 36.5264V36.4716C29.8991 36.8068 30.5727 36.9925 31.2613 37.0132C29.3598 35.7423 28.7736 33.2126 29.9218 31.2347C31.0083 32.5717 32.3639 33.6652 33.9005 34.4441C35.4372 35.223 37.1205 35.67 38.8411 35.756C38.6695 35.0175 38.6949 34.247 38.9146 33.5214C39.1343 32.7958 39.5406 32.1406 40.093 31.6213C41.8361 29.9828 44.5774 30.0668 46.2159 31.8089C47.1851 31.6176 48.1145 31.2623 48.9641 30.7583C48.641 31.7603 47.965 32.6109 47.0617 33.1518C47.9196 33.0507 48.7574 32.821 49.5469 32.4705C48.9661 33.3403 48.2348 34.0993 47.3873 34.7122Z" fill="white"/>
</g>
<defs>
<radialGradient id="paint0_radial_5319_6467" cx="0" cy="0" r="1" gradientUnits="userSpaceOnUse" gradientTransform="translate(31.9687 56.3106) rotate(-90) scale(29.7322 27.6533)">
<stop stop-color="#FFDD55"/>
<stop offset="0.1" stop-color="#FFDD55"/>
<stop offset="0.5" stop-color="#FF543E"/>
<stop offset="1" stop-color="#C837AB"/>
</radialGradient>
<radialGradient id="paint1_radial_5319_6467" cx="0" cy="0" r="1" gradientUnits="userSpaceOnUse" gradientTransform="translate(18.9749 26.1611) rotate(78.681) scale(13.2905 54.7837)">
<stop stop-color="#3771C8"/>
<stop offset="0.128" stop-color="#3771C8"/>
<stop offset="1" stop-color="#6600FF" stop-opacity="0"/>
</radialGradient>
<clipPath id="clip0_5319_6467">
<rect width="30" height="30" fill="white" transform="translate(24 24)"/>
</clipPath>
</defs>
</svg>
