<svg width="31" height="30" viewBox="0 0 31 30" fill="none" xmlns="http://www.w3.org/2000/svg">
<g clip-path="url(#clip0_5374_4617)">
<path d="M1.14023 14.8204C1.13953 17.341 1.80328 19.8021 3.06539 21.9714L1.01953 29.3833L8.66391 27.3944C10.7782 28.5365 13.1472 29.135 15.5545 29.1351H15.5609C23.5079 29.1351 29.977 22.7185 29.9804 14.8316C29.982 11.0099 28.4834 7.41618 25.7606 4.71246C23.0384 2.00897 19.4179 0.519322 15.5603 0.517578C7.61227 0.517578 1.14363 6.93386 1.14035 14.8204" fill="url(#paint0_linear_5374_4617)"/>
<path d="M0.625391 14.8158C0.62457 17.4271 1.31211 19.9763 2.61922 22.2233L0.5 29.9008L8.41848 27.8407C10.6003 29.021 13.0568 29.6434 15.5564 29.6443H15.5628C23.795 29.6443 30.4965 22.9969 30.5 14.8277C30.5014 10.8686 28.9489 7.1457 26.1289 4.34512C23.3086 1.54488 19.5586 0.00162791 15.5628 0C7.32922 0 0.628672 6.64651 0.625391 14.8158ZM5.34102 21.8363L5.04535 21.3706C3.80246 19.4096 3.14645 17.1436 3.14738 14.8167C3.15008 8.02663 8.7193 2.50233 15.5675 2.50233C18.8839 2.50372 22.0006 3.78651 24.3448 6.11395C26.6889 8.44163 27.9788 11.5358 27.978 14.8267C27.975 21.6169 22.4056 27.1419 15.5628 27.1419H15.5579C13.3298 27.1407 11.1446 26.547 9.23891 25.425L8.78539 25.1581L4.08641 26.3806L5.34102 21.8362V21.8363Z" fill="url(#paint1_linear_5374_4617)"/>
<path d="M11.8293 8.62116C11.5497 8.00453 11.2554 7.99209 10.9895 7.98127C10.7718 7.97197 10.5229 7.97267 10.2742 7.97267C10.0253 7.97267 9.6209 8.06558 9.27906 8.43592C8.93687 8.80662 7.97266 9.70244 7.97266 11.5244C7.97266 13.3465 9.31012 15.1073 9.49656 15.3546C9.68324 15.6015 12.0786 19.4601 15.8721 20.9445C19.025 22.1781 19.6666 21.9328 20.3508 21.8709C21.0352 21.8093 22.5591 20.9753 22.87 20.1106C23.1811 19.2459 23.1811 18.5048 23.0879 18.3499C22.9946 18.1956 22.7457 18.1029 22.3724 17.9178C21.9991 17.7326 20.1641 16.8366 19.8221 16.713C19.4799 16.5895 19.2311 16.5279 18.9822 16.8987C18.7333 17.2689 18.0186 18.1029 17.8007 18.3499C17.5831 18.5974 17.3652 18.6282 16.9921 18.443C16.6186 18.2572 15.4166 17.8666 13.9906 16.6051C12.8811 15.6235 12.132 14.4113 11.9143 14.0405C11.6965 13.6702 11.8909 13.4695 12.0781 13.285C12.2458 13.1191 12.4514 12.8526 12.6382 12.6364C12.8243 12.4201 12.8864 12.2658 13.0109 12.0188C13.1355 11.7716 13.0731 11.5553 12.98 11.3701C12.8864 11.1849 12.1612 9.35337 11.8293 8.62116Z" fill="white"/>
</g>
<defs>
<linearGradient id="paint0_linear_5374_4617" x1="1449.06" y1="2887.09" x2="1449.06" y2="0.517578" gradientUnits="userSpaceOnUse">
<stop stop-color="#1FAF38"/>
<stop offset="1" stop-color="#60D669"/>
</linearGradient>
<linearGradient id="paint1_linear_5374_4617" x1="1500.5" y1="2990.08" x2="1500.5" y2="0" gradientUnits="userSpaceOnUse">
<stop stop-color="#F9F9F9"/>
<stop offset="1" stop-color="white"/>
</linearGradient>
<clipPath id="clip0_5374_4617">
<rect width="30" height="30" fill="white" transform="translate(0.5)"/>
</clipPath>
</defs>
</svg>
