<svg width="41" height="41" viewBox="0 0 41 41" fill="none" xmlns="http://www.w3.org/2000/svg">
<path d="M0 15.3805C0 10.0047 0 7.31673 1.04622 5.26342C1.96649 3.45727 3.43493 1.98883 5.24108 1.06855C7.29439 0.0223389 9.98233 0.0223389 15.3582 0.0223389H25.597C30.9729 0.0223389 33.6608 0.0223389 35.7141 1.06855C37.5203 1.98883 38.9887 3.45727 39.909 5.26342C40.9552 7.31673 40.9552 10.0047 40.9552 15.3805V25.6194C40.9552 30.9952 40.9552 33.6832 39.909 35.7365C38.9887 37.5426 37.5203 39.0111 35.7141 39.9313C33.6608 40.9776 30.9729 40.9776 25.597 40.9776H15.3582C9.98233 40.9776 7.29439 40.9776 5.24108 39.9313C3.43493 39.0111 1.96649 37.5426 1.04622 35.7365C0 33.6832 0 30.9952 0 25.6194V15.3805Z" fill="#0D0D0D"/>
<path d="M27.6768 25.2207V17.1402C27.6768 15.7962 27.6768 15.1243 27.4152 14.6109C27.1851 14.1594 26.818 13.7923 26.3665 13.5622C25.8532 13.3007 25.1812 13.3007 23.8372 13.3007H17.118C15.774 13.3007 15.102 13.3007 14.5887 13.5622C14.1372 13.7923 13.7701 14.1594 13.54 14.6109C13.2784 15.1243 13.2784 15.7962 13.2784 17.1402V21.561C13.2784 22.9049 13.2784 23.5769 13.54 24.0902C13.7701 24.5418 14.1372 24.9089 14.5887 25.139C15.102 25.4005 15.774 25.4005 17.118 25.4005H22.6686C22.9707 25.4005 23.1217 25.4005 23.2673 25.4158C23.7678 25.4682 24.2449 25.6547 24.6484 25.9554C24.7658 26.0429 24.8768 26.1453 25.0989 26.3501C25.5716 26.786 25.8079 27.004 25.9874 27.0842C26.6337 27.373 27.3882 27.0424 27.6141 26.3715C27.6768 26.1852 27.6768 25.8637 27.6768 25.2207Z" fill="white"/>
</svg>
