<svg width="70" height="48" viewBox="0 0 70 48" fill="none" xmlns="http://www.w3.org/2000/svg">
<rect x="0.5" y="0.5" width="69" height="47" rx="5.5" fill="white" stroke="#D9D9D9"/>
<path fill-rule="evenodd" clip-rule="evenodd" d="M33.0603 31.513V25.4711H36.1786C37.4564 25.4711 38.535 25.0429 39.4142 24.1985L39.6252 23.9844C41.2313 22.2361 41.1258 19.5124 39.4142 17.8949C38.5584 17.0386 37.3861 16.5747 36.1786 16.5985H31.1729V31.513H33.0603ZM33.0605 23.6395V18.4301H36.2262C36.9063 18.4301 37.5512 18.6918 38.0319 19.1675C39.052 20.1666 39.0754 21.8317 38.0905 22.8664C37.6098 23.3778 36.9297 23.6633 36.2262 23.6395H33.0605ZM48.4293 22.1052C47.6204 21.3559 46.5185 20.9754 45.1234 20.9754C43.3298 20.9754 41.9816 21.6414 41.0906 22.9616L42.7553 24.0201C43.3649 23.1162 44.1973 22.6642 45.2524 22.6642C45.9206 22.6642 46.5653 22.914 47.0694 23.366C47.5618 23.7941 47.8432 24.4126 47.8432 25.0667V25.5068C47.1163 25.1024 46.2019 24.8883 45.0765 24.8883C43.7635 24.8883 42.7084 25.1976 41.923 25.8279C41.1375 26.4583 40.739 27.2908 40.739 28.3493C40.7155 29.3127 41.1258 30.2285 41.8527 30.847C42.5912 31.513 43.5291 31.846 44.631 31.846C45.9323 31.846 46.9639 31.2633 47.7494 30.0977H47.8314V31.513H49.6368V25.2213C49.6368 23.9012 49.2382 22.8545 48.4293 22.1052ZM43.3066 29.6338C42.9197 29.3484 42.6852 28.8845 42.6852 28.385C42.6852 27.826 42.9432 27.3622 43.4473 26.9935C43.9632 26.6248 44.6081 26.4345 45.3702 26.4345C46.4255 26.4226 47.2462 26.6604 47.8325 27.1362C47.8325 27.945 47.5159 28.6467 46.8945 29.2413C46.3317 29.8122 45.5696 30.1334 44.7723 30.1334C44.2446 30.1453 43.7287 29.9669 43.3066 29.6338ZM53.693 35.9969L60.0001 21.3084H57.9485L55.0295 28.6348H54.9943L52.0049 21.3084H49.9534L54.0916 30.8589L51.747 35.9969H53.693Z" fill="#3C4043"/>
<path d="M26.544 24.1661C26.544 23.5834 26.4971 23.0006 26.4034 22.4297H18.4434V25.7242H23.0037C22.8161 26.7827 22.2065 27.7342 21.3155 28.3289V30.4697H24.0353C25.6296 28.983 26.544 26.7827 26.544 24.1661Z" fill="#4285F4"/>
<path d="M18.4442 32.5392C20.7185 32.5392 22.6411 31.778 24.0361 30.4697L21.3164 28.3289C20.5544 28.8522 19.5814 29.1496 18.4442 29.1496C16.2403 29.1496 14.3763 27.6391 13.7081 25.6172H10.9062V27.8294C12.3365 30.7195 15.2555 32.5392 18.4442 32.5392Z" fill="#34A853"/>
<path d="M13.708 25.6157C13.3563 24.5572 13.3563 23.4035 13.708 22.3331V20.1328H10.9058C9.69808 22.5472 9.69808 25.4016 10.9058 27.816L13.708 25.6157Z" fill="#FBBC04"/>
<path d="M18.4442 18.8003C19.6517 18.7765 20.8123 19.2404 21.6798 20.0848L24.0948 17.6348C22.559 16.1838 20.5427 15.3869 18.4442 15.4107C15.2555 15.4107 12.3365 17.2423 10.9062 20.1324L13.7081 22.3446C14.3763 20.3108 16.2403 18.8003 18.4442 18.8003Z" fill="#EA4335"/>
</svg>
